<svg id="Layer_1" data-name="Layer 1" xmlns="http://www.w3.org/2000/svg" viewBox="0 0 511.93 512"><defs><style>.cls-1{fill:#1363df;}.cls-2{fill:#193498;}.cls-3{fill:#344cb7;}</style></defs><rect class="cls-1" x="335.62" width="176.31" height="176.31"/><polygon class="cls-2" points="255.97 255.97 255.97 484.36 255.97 511.93 255.98 511.93 511.93 511.93 511.93 255.97 255.97 255.97"/><polygon class="cls-3" points="0 0 0 255.67 0 255.97 27.66 255.97 255.97 255.97 255.97 0 0 0"/><polygon class="cls-1" points="175.14 407.4 103.63 483.02 28.44 407.86 101.02 333.75 27.66 255.97 0 255.97 0 255.67 0 255.67 0 256.08 73 333.49 0.01 408.01 104.04 512 175.89 436.02 255.62 511.93 255.97 511.93 255.97 484.36 175.14 407.4"/></svg>